<svg width="120" height="60" viewBox="0 0 120 60" fill="none" xmlns="http://www.w3.org/2000/svg">
<path d="M75.3542 58.5072C75.3542 54.3921 73.7194 50.4455 70.8096 47.5357C67.8998 44.6259 63.9533 42.9912 59.8382 42.9912C55.7231 42.9912 51.7766 44.6259 48.8668 47.5357C45.957 50.4455 44.3223 54.3921 44.3223 58.5072L59.8382 58.5072H75.3542Z" fill="#EDEDED"/>
<path d="M70.9489 22.5022L57.7444 51.0297C57.2515 52.0945 57.7587 53.3481 58.8614 53.7907C59.9641 54.2332 61.2205 53.6875 61.6286 52.5887L72.5623 23.1497C72.7228 22.7175 72.5067 22.238 72.073 22.0639C71.6392 21.8898 71.1428 22.0833 70.9489 22.5022Z" fill="#2C2C2C"/>
<path d="M0.670898 59.3257C0.6709 43.5915 6.92127 28.5018 18.047 17.3761C29.1727 6.25037 44.2624 -1.87628e-07 59.9966 0V5.93257C45.8358 5.93257 32.2551 11.5579 22.2419 21.571C12.2288 31.5842 6.60347 45.1649 6.60347 59.3257H0.670898Z" fill="#E15825"/>
<path d="M61.2092 0.0126953C68.5595 0.163 75.8179 1.67823 82.6145 4.48118L80.3527 9.96566C74.2358 7.443 67.7032 6.0793 61.0879 5.94402L61.2092 0.0126953Z" fill="#F18200"/>
<path d="M83.7102 4.94531C90.4492 7.88397 96.5834 12.0496 101.8 17.2301L97.6197 21.4396C92.9247 16.7772 87.404 13.0281 81.3389 10.3833L83.7102 4.94531Z" fill="#FCD800"/>
<path d="M102.599 18.04C107.715 23.3196 111.806 29.5041 114.662 36.2785L109.196 38.5833C106.625 32.4863 102.944 26.9202 98.3389 22.1686L102.599 18.04Z" fill="#A9D161"/>
<path d="M115.19 37.5732C117.886 44.4131 119.287 51.6944 119.321 59.0463L113.389 59.0742C113.358 52.4576 112.097 45.9044 109.671 39.7485L115.19 37.5732Z" fill="#009900"/>
</svg>
