<svg width="125" height="126" viewBox="0 0 125 126" fill="none" xmlns="http://www.w3.org/2000/svg">
<path d="M62.6441 0.778242C39.5329 0.778242 19.2664 13.2228 8.59969 32.0672C4.6886 39.5338 3.97737 45.9337 7.17744 51.2671C10.733 57.6671 18.9114 58.3783 23.1781 58.3783H30.9996L28.1551 67.2669C26.3774 72.6003 27.0886 78.645 29.9333 82.5561C32.7778 86.4671 37.0443 88.6006 42.3776 88.6006C45.9331 88.6006 49.844 87.8897 53.3996 86.4672C52.3326 85.045 51.6222 83.6228 50.911 81.8449C50.5549 80.4228 49.8439 79.0004 49.8439 77.2226C47.7106 78.2896 45.2216 78.6449 42.7327 78.6449C41.3105 78.6449 39.1776 78.2887 38.1108 76.5115C37.0438 75.0893 36.6884 72.9563 37.3997 70.4674L41.3113 58.3783H53.7555L56.9552 48.067H44.8661L50.1999 31.3561H39.5331L34.2001 48.067H22.8221C19.2666 48.067 17.1328 47.0003 16.0661 45.223C14.9991 43.0896 16.0661 38.8228 18.9105 33.845V33.4886C28.5106 19.622 44.1556 10.3776 62.289 10.3776C91.0889 10.3776 114.555 33.8443 114.555 62.6442C114.555 91.4443 91.0889 114.911 62.289 114.911C36.689 114.911 15.3553 96.4222 10.7331 72.2444L0.777344 74.3777C6.46619 103.178 31.7112 125.222 62.289 125.222C96.7779 125.222 124.866 97.1331 124.866 62.6442C125.222 28.8665 97.1329 0.778242 62.6441 0.778242Z" fill="#CCEDFA"/>
<path d="M102.466 80.4229C99.9768 80.4229 96.7768 80.0668 94.6434 78.6451C93.9325 77.9342 92.8655 77.223 92.5101 75.4451C92.5101 74.7342 92.5099 73.6672 92.866 72.6006L100.688 48.7784H90.0215L83.2663 69.4005C81.4885 74.7339 75.7997 79.0007 70.8221 79.0007C69.3997 79.0007 67.6215 78.6445 66.9105 77.2229C66.1996 76.1559 65.4883 74.7339 66.5545 72.245L74.3769 48.4229H63.71L56.9548 69.045C55.177 74.0228 55.8874 79.3563 58.7322 83.2674C61.5767 86.8229 65.4878 88.9564 70.8212 88.9564C75.7989 88.9564 81.1322 86.8229 85.3988 83.2674C86.821 85.4008 88.5989 86.823 91.0878 87.8897C94.6435 88.9567 96.7765 88.9568 99.2653 88.9568C100.332 88.9568 101.754 88.6004 102.11 88.6004C102.466 88.2443 102.466 87.8899 102.821 87.5337C103.177 86.8229 103.532 86.1114 103.888 85.4004C104.244 84.6895 104.599 83.978 104.955 83.267C105.311 82.5561 105.666 81.8447 106.022 81.1336C106.378 80.7775 106.378 80.0667 106.732 79.7114C105.665 80.4223 104.244 80.4229 102.466 80.4229Z" fill="#CCEDFA"/>
</svg>
