<svg width="63" height="27" viewBox="0 0 63 27" fill="none" xmlns="http://www.w3.org/2000/svg">
<path d="M8.86633 0C12.2781 0 15.8142 1.95077 16.7357 6.00791H13.9473C13.0746 3.7757 11.1333 2.74676 8.84195 2.72127C5.28079 2.72127 2.91251 5.39104 2.91251 9.21825C2.91251 12.7856 5.28079 15.6341 8.84195 15.6341C11.2332 15.6341 13.2494 14.4286 14.0209 12.0402H16.8361C15.9641 16.4321 12.378 18.3574 8.84195 18.3574C4.10988 18.3574 0 14.9943 0 9.21825C0 3.41425 4.10988 0 8.86633 0Z" fill="#00A6CA"/>
<path d="M25.9469 15.7657V18.1781H17.5303V15.7657H20.2948V2.59439H17.7538V0.204102H25.7234V2.59439H23.1831V15.7657H25.9469Z" fill="#00A6CA"/>
<path d="M38.3222 8.7304C40.1418 9.37239 41.1367 10.8615 41.1367 12.8893C41.1367 16.0998 38.9951 18.1787 35.6077 18.1787H27.8125V0.206543H34.8854C38.0482 0.206543 40.3629 1.87552 40.3629 5.265C40.3629 6.77891 39.6925 8.03671 38.3222 8.7304ZM30.702 2.7986V7.75439H34.6864C36.3554 7.75439 37.5002 7.08708 37.5265 5.34021C37.5265 3.56892 36.3798 2.7986 34.6864 2.7986H30.702ZM30.702 10.1919V15.5591H35.4353C37.0526 15.5591 38.1969 14.6105 38.273 12.8893C38.273 11.991 37.9741 11.2711 37.3766 10.7599C36.7025 10.2454 35.9085 10.1919 35.1094 10.1919H30.702Z" fill="#00A6CA"/>
<path d="M50.7223 15.7657V18.1781H42.3057V15.7657H45.0697V2.59439H42.5302V0.204102H50.499V2.59439H47.9585V15.7657H50.7223Z" fill="#00A6CA"/>
<path d="M55.5034 15.4814H62.9996V18.1781H52.5898V0.204102H55.5034V15.4814Z" fill="#00A6CA"/>
<path d="M0 26.1889V20.8328C0.651758 20.8328 1.35711 20.8251 2.00869 20.8328C3.05479 20.8328 3.81079 21.5819 3.81079 22.6133C3.81079 23.6451 3.05479 24.3771 2.00869 24.3771H0.370655V26.1887H0V26.1889ZM2.00869 24.0183C2.80878 24.0183 3.43928 23.4533 3.43928 22.6049C3.43928 21.7576 2.83247 21.1839 2.00869 21.1839H0.370655V24.0181H2.00869V24.0183Z" fill="#00A6CA"/>
<path d="M5.56604 26.2495C4.94298 26.2495 4.29883 25.9143 4.29883 25.2115C4.29883 24.4098 4.9805 24.0186 5.69968 24.0186C6.14346 24.0186 6.59727 24.1113 7.01236 24.2939V23.6523C7.01236 22.9349 6.37391 22.7725 5.80393 22.7725C5.38901 22.7725 4.95871 22.8722 4.65496 23.057L4.57302 22.7506C4.90581 22.5588 5.3814 22.4449 5.84905 22.4449C6.61992 22.4449 7.34636 22.743 7.34636 23.6593V25.3411C7.34636 25.7845 7.32268 26.0365 7.79706 25.975L7.81193 26.2271C7.20391 26.3263 7.04175 26.1048 7.06301 25.5252C6.78191 26.0599 6.15885 26.2495 5.56604 26.2495ZM7.01219 24.608C6.6035 24.3932 6.16628 24.3093 5.74376 24.3173C5.21008 24.3173 4.64701 24.5784 4.64701 25.181C4.64701 25.746 5.12762 25.9371 5.62447 25.9371C6.2038 25.9371 6.85608 25.6704 7.01201 25.0354V24.608H7.01219Z" fill="#00A6CA"/>
<path d="M10.1532 22.4534C10.5015 22.4597 10.8136 22.559 11.0515 22.7354L10.924 23.0571C10.695 22.8803 10.3992 22.8037 10.1082 22.8037C9.57575 22.8037 9.06333 23.1792 9.06333 23.8062V26.189H8.70807V23.3544C8.70807 22.9954 8.69994 22.7661 8.24803 22.8281L8.23438 22.4984C8.80367 22.3994 9.03464 22.6219 9.03464 23.0495C9.27114 22.6135 9.73929 22.4297 10.1532 22.4534Z" fill="#00A6CA"/>
<path d="M12.4951 22.5068H13.8809V22.8202H12.4951V24.8068C12.4951 25.5698 12.7261 25.8853 13.1905 25.8922C13.4152 25.8922 13.688 25.8312 14.0058 25.7161L14.0595 26.0294C13.7255 26.151 13.4209 26.2059 13.1694 26.2059C12.5015 26.2059 12.1402 25.7851 12.1402 24.8144V22.8202L11.3242 22.7968V22.5068H12.1402L12.1694 21.3838H12.4953V22.5068H12.4951Z" fill="#00A6CA"/>
<path d="M18.355 26.2495C17.4138 26.2495 16.4805 25.6086 16.4805 24.3401C16.4805 23.0632 17.4218 22.4449 18.3626 22.4449C19.3031 22.4449 20.2308 23.072 20.2308 24.3401C20.2308 25.6088 19.2894 26.2495 18.355 26.2495ZM18.355 25.9226C19.111 25.9226 19.8757 25.3879 19.8757 24.3401C19.8757 23.2937 19.1184 22.7893 18.3626 22.7816C17.5992 22.7725 16.8364 23.286 16.8364 24.3401C16.8364 25.3879 17.593 25.9226 18.355 25.9226Z" fill="#00A6CA"/>
<path d="M21.5194 22.8282H20.6816V22.5065H21.5194V21.8416C21.5194 20.5206 22.528 20.3365 23.483 20.7558L23.4093 21.0539C22.6753 20.7263 21.8757 20.7726 21.8757 21.85V22.5066H23.2546V22.8283H21.8757V26.1893H21.5192V22.8282H21.5194Z" fill="#00A6CA"/>
<path d="M25.0166 21.1923V20.8396H28.7954V21.1923H27.0908V26.1891H26.7207V21.1923H25.0166Z" fill="#00A6CA"/>
<path d="M30.4709 22.4534C30.8193 22.4597 31.1311 22.559 31.3678 22.7354L31.2421 23.0571C31.0125 22.8803 30.716 22.8037 30.427 22.8037C29.8933 22.8037 29.3821 23.1792 29.3821 23.8062V26.189H29.0261V23.3544C29.0261 22.9954 29.0187 22.7661 28.5668 22.8281L28.5518 22.4984C29.1223 22.3994 29.352 22.6219 29.352 23.0495C29.5889 22.6135 30.0558 22.4297 30.4709 22.4534Z" fill="#00A6CA"/>
<path d="M32.9838 26.2495C32.3608 26.2495 31.7168 25.9143 31.7168 25.2115C31.7168 24.4098 32.3976 24.0186 33.1169 24.0186C33.5612 24.0186 34.0126 24.1113 34.4284 24.2939V23.6523C34.4284 22.9349 33.7905 22.7725 33.2205 22.7725C32.8056 22.7725 32.3748 22.8722 32.0715 23.057L31.9903 22.7506C32.3236 22.5588 32.798 22.4449 33.2649 22.4449C34.0365 22.4449 34.7629 22.743 34.7629 23.6593V25.3411C34.7629 25.7845 34.7405 26.0365 35.2141 25.975L35.2285 26.2271C34.6219 26.3263 34.4583 26.1048 34.4796 25.5252C34.1999 26.0599 33.5768 26.2495 32.9838 26.2495ZM34.4284 24.608C34.0202 24.3932 33.5844 24.3093 33.1612 24.3173C32.6268 24.3173 32.0638 24.5784 32.0638 25.181C32.0638 25.746 32.5458 25.9371 33.0426 25.9371C33.62 25.9371 34.2721 25.6704 34.4284 25.0354V24.608Z" fill="#00A6CA"/>
<path d="M38.8392 26.1892V23.9504C38.8392 23.2166 38.3648 22.7894 37.6757 22.7894C36.971 22.7894 36.4598 23.2474 36.4598 24.0119V26.189H36.1046V23.4618C36.1046 22.8721 36.0441 22.7507 35.6508 22.8113L35.6445 22.4914C36.1851 22.407 36.4374 22.5286 36.4374 23.1177C36.757 22.6439 37.1939 22.4368 37.7569 22.4452C38.6596 22.4452 39.1951 23.0635 39.1951 23.9504V26.1892H38.8392Z" fill="#00A6CA"/>
<path d="M40.4284 25.165C40.4896 25.7004 41.0749 25.9451 41.6531 25.9451C42.2386 25.9451 42.8395 25.7237 42.8395 25.196C42.8395 24.5151 42.1349 24.5151 41.6605 24.4545C40.9477 24.3709 40.1862 24.2412 40.1862 23.4837C40.1862 22.7203 40.897 22.4449 41.6318 22.4449C42.3721 22.4449 43.0757 22.759 43.0757 23.4147H42.7491C42.7491 22.9567 42.1936 22.7504 41.6368 22.7504C41.0962 22.7504 40.4738 22.9565 40.5107 23.4762C40.5107 24.0426 41.2897 24.0872 41.7034 24.1487C42.4524 24.2549 43.2021 24.3244 43.1791 25.1958C43.1791 25.9307 42.4524 26.2492 41.6448 26.2492C40.8887 26.2492 40.1623 25.9449 40.0811 25.1648H40.4284V25.165Z" fill="#00A6CA"/>
<path d="M44.1318 24.356V20.8396H44.5037V24.348C44.5037 25.3334 45.148 25.8918 46.0824 25.8918C47.008 25.8918 47.6453 25.3334 47.6453 24.348V20.8396H48.0087V24.356C48.0087 25.5476 47.216 26.2497 46.0824 26.2497C44.9414 26.2497 44.1318 25.5476 44.1318 24.356Z" fill="#00A6CA"/>
<path d="M52.0925 26.1892V23.9504C52.0925 23.2166 51.6176 22.7894 50.9285 22.7894C50.2243 22.7894 49.7138 23.2474 49.7138 24.0119V26.189H49.3568V23.4618C49.3568 22.8721 49.2987 22.7507 48.9049 22.8113L48.8975 22.4914C49.4393 22.407 49.6908 22.5286 49.6908 23.1177C50.0093 22.6439 50.4466 22.4368 51.0097 22.4452C51.9147 22.4452 52.4479 23.0635 52.4479 23.9504V26.1892H52.0925Z" fill="#00A6CA"/>
<path d="M53.8118 20.9545C53.9309 20.9629 54.0497 21.0477 54.0497 21.2149C54.0497 21.3837 53.9385 21.4666 53.8187 21.4757C53.6937 21.4823 53.5596 21.3906 53.5596 21.2149C53.5596 21.0393 53.6856 20.9484 53.8118 20.9545ZM53.9746 26.1894H53.6275V22.5067H53.9746V26.1894Z" fill="#00A6CA"/>
<path d="M56.8354 26.2495C55.8915 26.2495 54.959 25.6086 54.959 24.3401C54.959 23.0632 55.8996 22.4449 56.841 22.4449C57.7828 22.4449 58.7093 23.072 58.7093 24.3401C58.7093 25.6088 57.7667 26.2495 56.8354 26.2495ZM56.8354 25.9226C57.5887 25.9226 58.3528 25.3879 58.3528 24.3401C58.3528 23.2937 57.5968 22.7893 56.841 22.7816C56.0782 22.7725 55.3148 23.286 55.3148 24.3401C55.3148 25.3879 56.0701 25.9226 56.8354 25.9226Z" fill="#00A6CA"/>
<path d="M62.5125 26.1892V23.9504C62.5125 23.2166 62.0386 22.7894 61.3495 22.7894C60.6442 22.7894 60.1335 23.2474 60.1335 24.0119V26.189H59.7777V23.4618C59.7777 22.8721 59.7177 22.7507 59.3246 22.8113L59.3184 22.4914C59.859 22.407 60.111 22.5286 60.111 23.1177C60.4295 22.6439 60.8663 22.4368 61.4306 22.4452C62.3346 22.4452 62.8676 23.0635 62.8676 23.9504V26.1892H62.5125Z" fill="#00A6CA"/>
</svg>
