<svg width="128" height="128" viewBox="0 0 128 128" fill="none" xmlns="http://www.w3.org/2000/svg">
<path d="M63.6441 1.77824C40.5329 1.77824 20.2664 14.2228 9.59969 33.0672C5.6886 40.5338 4.97737 46.9337 8.17744 52.2671C11.733 58.6671 19.9114 59.3783 24.1781 59.3783H31.9996L29.1551 68.2669C27.3774 73.6003 28.0886 79.645 30.9333 83.5561C33.7778 87.4671 38.0443 89.6006 43.3776 89.6006C46.9331 89.6006 50.844 88.8897 54.3996 87.4672C53.3326 86.045 52.6222 84.6228 51.911 82.8449C51.5549 81.4228 50.8439 80.0004 50.8439 78.2226C48.7106 79.2896 46.2216 79.6449 43.7327 79.6449C42.3105 79.6449 40.1776 79.2887 39.1108 77.5115C38.0438 76.0893 37.6884 73.9563 38.3997 71.4674L42.3113 59.3783H54.7555L57.9552 49.067H45.8661L51.1999 32.3561H40.5331L35.2001 49.067H23.8221C20.2666 49.067 18.1328 48.0003 17.0661 46.223C15.9991 44.0896 17.0661 39.8228 19.9105 34.845V34.4886C29.5106 20.622 45.1556 11.3776 63.289 11.3776C92.0889 11.3776 115.555 34.8443 115.555 63.6442C115.555 92.4443 92.0889 115.911 63.289 115.911C37.689 115.911 16.3553 97.4222 11.7331 73.2444L1.77734 75.3777C7.46619 104.178 32.7112 126.222 63.289 126.222C97.7779 126.222 125.866 98.1331 125.866 63.6442C126.222 29.8665 98.1329 1.77824 63.6441 1.77824Z" fill="#CCEDFA"/>
<path d="M103.466 81.4229C100.977 81.4229 97.7768 81.0668 95.6434 79.6451C94.9325 78.9342 93.8655 78.223 93.5101 76.4451C93.5101 75.7342 93.5099 74.6672 93.866 73.6006L101.688 49.7784H91.0215L84.2663 70.4005C82.4885 75.7339 76.7997 80.0007 71.8221 80.0007C70.3997 80.0007 68.6215 79.6445 67.9105 78.2229C67.1996 77.1559 66.4883 75.7339 67.5545 73.245L75.3769 49.4229H64.71L57.9548 70.045C56.177 75.0228 56.8874 80.3563 59.7322 84.2674C62.5767 87.8229 66.4878 89.9564 71.8212 89.9564C76.7989 89.9564 82.1322 87.8229 86.3988 84.2674C87.821 86.4008 89.5989 87.823 92.0878 88.8897C95.6435 89.9567 97.7765 89.9568 100.265 89.9568C101.332 89.9568 102.754 89.6004 103.11 89.6004C103.466 89.2443 103.466 88.8899 103.821 88.5337C104.177 87.8229 104.532 87.1114 104.888 86.4004C105.244 85.6895 105.599 84.978 105.955 84.267C106.311 83.5561 106.666 82.8447 107.022 82.1336C107.378 81.7775 107.378 81.0667 107.732 80.7114C106.665 81.4223 105.244 81.4229 103.466 81.4229Z" fill="#CCEDFA"/>
</svg>
